<svg xmlns="http://www.w3.org/2000/svg" viewBox="0 0 48 48" width="256" height="256">
  <title>Brain Fog — Cognitive Load Signal</title>
  <defs>
    <filter id="sketch-brainFog" x="-20%" y="-20%" width="140%" height="140%">
      <feTurbulence type="fractalNoise" baseFrequency="0.028" numOctaves="2" seed="7" result="noise"/>
      <feDisplacementMap in="SourceGraphic" in2="noise" scale="2.4" xChannelSelector="R" yChannelSelector="G"/>
    </filter>
  </defs>
  <g filter="url(#sketch-brainFog)">
  <path d="M16 10 C10 10 7 15 8 20 C4 22 4 28 8 30 C7 35 11 39 17 38 C19 41 24 41 26 38 C32 39 36 35 35 30 C39 28 39 22 35 20 C36 15 33 10 27 10 C24 10 22 12 21 14 C20 12 18 10 16 10 Z" stroke="#355C6A" stroke-width="2.25" stroke-linecap="round" stroke-linejoin="round" fill="none"/>
  <path d="M2 20 H12" stroke="#355C6A" stroke-width="2.25" stroke-linecap="round" stroke-linejoin="round" fill="none"/>
  <path d="M36 20 H46" stroke="#355C6A" stroke-width="2.25" stroke-linecap="round" stroke-linejoin="round" fill="none"/>
  <path d="M0 27 H10" stroke="#355C6A" stroke-width="2.25" stroke-linecap="round" stroke-linejoin="round" fill="none"/>
  <path d="M38 27 H48" stroke="#355C6A" stroke-width="2.25" stroke-linecap="round" stroke-linejoin="round" fill="none"/>
  </g>
  <circle cx="40" cy="8" r="2.5" fill="#E8407A"/>
</svg>
